<mxfile host="app.diagrams.net" agent="Mozilla/5.0 (Windows NT 10.0; Win64; x64) AppleWebKit/537.36 (KHTML, like Gecko) Chrome/135.0.0.0 Safari/537.36" version="26.2.14">
  <diagram name="第 1 页" id="_zNGr6LoNDZ-EelbqwkR">
    <mxGraphModel dx="1221" dy="1103" grid="1" gridSize="10" guides="1" tooltips="1" connect="1" arrows="1" fold="1" page="1" pageScale="1" pageWidth="827" pageHeight="1169" math="0" shadow="0">
      <root>
        <mxCell id="0" />
        <mxCell id="1" parent="0" />
        <mxCell id="x9U1jVnIfnY6zVNZwdzU-1" value="" style="whiteSpace=wrap;html=1;aspect=fixed;" parent="1" vertex="1">
          <mxGeometry x="350" y="430" width="80" height="80" as="geometry" />
        </mxCell>
        <mxCell id="x9U1jVnIfnY6zVNZwdzU-2" value="" style="ellipse;whiteSpace=wrap;html=1;aspect=fixed;" parent="1" vertex="1">
          <mxGeometry x="530" y="440" width="80" height="80" as="geometry" />
        </mxCell>
        <mxCell id="x9U1jVnIfnY6zVNZwdzU-3" value="Internal Active Structure Element" style="html=1;outlineConnect=0;whiteSpace=wrap;fillColor=#EBEBEB;shape=mxgraph.archimate3.application;appType=generic;archiType=square;" parent="1" vertex="1">
          <mxGeometry x="110" y="420" width="150" height="75" as="geometry" />
        </mxCell>
        <mxCell id="CMDXRM7V48VoU47ecRLq-2" style="edgeStyle=orthogonalEdgeStyle;rounded=0;orthogonalLoop=1;jettySize=auto;html=1;exitX=0.25;exitY=0;exitDx=0;exitDy=0;" edge="1" parent="1" source="CMDXRM7V48VoU47ecRLq-1">
          <mxGeometry relative="1" as="geometry">
            <mxPoint x="420" y="220" as="targetPoint" />
          </mxGeometry>
        </mxCell>
        <mxCell id="CMDXRM7V48VoU47ecRLq-3" style="edgeStyle=orthogonalEdgeStyle;rounded=0;orthogonalLoop=1;jettySize=auto;html=1;" edge="1" parent="1" source="CMDXRM7V48VoU47ecRLq-1">
          <mxGeometry relative="1" as="geometry">
            <mxPoint x="490" y="500" as="targetPoint" />
          </mxGeometry>
        </mxCell>
        <mxCell id="CMDXRM7V48VoU47ecRLq-1" value="" style="swimlane;startSize=0;" vertex="1" parent="1">
          <mxGeometry x="140" y="180" width="200" height="200" as="geometry" />
        </mxCell>
      </root>
    </mxGraphModel>
  </diagram>
</mxfile>
